HIERARCHY
ROOT Hips
{
	OFFSET 0.000000 88.474243 0.000000
	CHANNELS 6 Xposition Yposition Zposition Zrotation Yrotation Xrotation 
	JOINT Hips_Spine
	{
		OFFSET 0.000000 0.000000 0.000000
		CHANNELS 3 Zrotation Yrotation Xrotation
		JOINT Spine
		{
			OFFSET 0.005100 8.711998 -0.691000
			CHANNELS 3 Zrotation Yrotation Xrotation
			JOINT Spine1
			{
				OFFSET -0.009200 8.660301 -1.275000
				CHANNELS 3 Zrotation Yrotation Xrotation
				JOINT Spine2
				{
					OFFSET 0.006300 9.852501 -1.857000
					CHANNELS 3 Zrotation Yrotation Xrotation
					JOINT Spine2_Neck
					{
						OFFSET 0.000000 0.000000 0.000000
						CHANNELS 3 Zrotation Yrotation Xrotation
						JOINT Neck
						{
							OFFSET 0.016300 11.420799 -0.263300
							CHANNELS 3 Zrotation Yrotation Xrotation
							End Site #name: Head
							{
								OFFSET -0.019200 9.262405 2.362500
							}
						}
					}
					JOINT Spine2_LeftShoulder
					{
						OFFSET 0.000000 0.000000 0.000000
						CHANNELS 3 Zrotation Yrotation Xrotation
						JOINT LeftShoulder
						{
							OFFSET 5.616900 6.732201 -0.345700
							CHANNELS 3 Zrotation Yrotation Xrotation
							JOINT LeftArm
							{
								OFFSET 10.664888 -0.183372 -2.440700
								CHANNELS 3 Zrotation Yrotation Xrotation
								JOINT LeftForeArm
								{
									OFFSET 27.459126 0.000000 0.000000
									CHANNELS 3 Zrotation Yrotation Xrotation
									End Site #name: LeftHand
									{
										OFFSET 21.306858 0.000000 0.000000
									}
								}
							}
						}
					}
					JOINT Spine2_RightShoulder
					{
						OFFSET 0.000000 0.000000 0.000000
						CHANNELS 3 Zrotation Yrotation Xrotation
						JOINT RightShoulder
						{
							OFFSET -5.580300 6.737503 -0.344400
							CHANNELS 3 Zrotation Yrotation Xrotation
							JOINT RightArm
							{
								OFFSET -10.679335 -0.188484 -2.383900
								CHANNELS 3 Zrotation Yrotation Xrotation
								JOINT RightForeArm
								{
									OFFSET -27.503529 0.000000 0.000000
									CHANNELS 3 Zrotation Yrotation Xrotation
									End Site #name: RightHand
									{
										OFFSET -21.306808 0.000000 0.000000
									}
								}
							}
						}
					}
				}
			}
		}
	}
	JOINT Hips_LeftUpLeg
	{
		OFFSET 0.000000 0.000000 0.000000
		CHANNELS 3 Zrotation Yrotation Xrotation
		JOINT LeftUpLeg
		{
			OFFSET 6.857700 -6.739601 0.312100
			CHANNELS 3 Zrotation Yrotation Xrotation
			JOINT LeftLeg
			{
				OFFSET -0.367590 -34.731552 -4.572400
				CHANNELS 3 Zrotation Yrotation Xrotation
				End Site #name: LeftFoot
				{
					OFFSET 0.367590 -34.656704 -6.067400
				}
			}
		}
	}
	JOINT Hips_RightUpLeg
	{
		OFFSET 0.000000 0.000000 0.000000
		CHANNELS 3 Zrotation Yrotation Xrotation
		JOINT RightUpLeg
		{
			OFFSET -6.876100 -6.733299 0.301000
			CHANNELS 3 Zrotation Yrotation Xrotation
			JOINT RightLeg
			{
				OFFSET 0.347353 -34.795158 -4.515900
				CHANNELS 3 Zrotation Yrotation Xrotation
				End Site #name: RightFoot
				{
					OFFSET -0.347353 -34.589367 -6.070300
				}
			}
		}
	}
}
MOTION
Frames: 17
Frame Time: 0.041667
0.136731 0.029907 0.037879 -0.127397 -4.192506 -3.021719 0.000000 0.000000 0.000000 1.247161 2.788582 6.290978 -2.983101 1.424763 2.266628 0.000000 0.000000 0.000000 -3.269262 1.437146 -0.898619 2.161257 -0.913593 -2.133823 -3.996226 0.713829 1.210865 -4.029914 0.494229 0.948416 -61.415424 -8.310613 51.881466 0.700807 -48.178957 -0.508262 -2.495554 1.381618 1.341648 7.549345 1.525789 2.984497 80.489534 -7.285755 45.762480 -0.018503 60.072190 0.590453 0.000000 0.000000 -0.000000 -2.209685 6.778414 -14.416268 4.531398 10.352726 18.947734 0.000000 0.000000 0.000000 -6.395210 -10.120053 -11.993565 -2.485200 -6.237080 18.133086 
0.381138 0.078535 0.003964 0.109251 -4.127498 -2.964943 0.000000 0.000000 0.000000 -0.782839 1.381085 1.412035 -2.807224 1.140122 2.753137 0.000000 0.000000 0.000000 -3.136551 0.846123 1.661479 2.673605 -0.061070 -1.519284 -2.763249 0.681920 2.853455 -1.190199 2.901788 0.428979 -55.912150 -4.774956 67.661408 0.096170 -44.736707 0.228315 -3.190921 0.889874 2.173404 8.158319 5.772714 2.136930 82.675731 -7.543334 47.085633 0.480274 58.991523 0.603499 0.000000 0.000000 -0.000000 -2.495358 8.290146 -13.718816 4.098963 9.446299 18.186311 0.000000 0.000000 0.000000 -6.780097 -10.127227 -12.205056 -2.823050 -6.284685 17.830154 
0.654146 0.080744 -0.047812 -0.140323 -3.930653 -2.687388 0.000000 0.000000 0.000000 -1.568945 1.339638 -0.285370 -2.361244 0.892706 2.819978 0.000000 0.000000 0.000000 -2.983153 0.739093 1.773652 1.730043 0.126272 -0.505798 -2.412270 0.844497 3.305619 -1.651707 4.520687 0.275197 -54.011269 -5.348846 73.312525 0.096736 -35.475692 -0.023906 -2.866024 0.908722 2.375377 9.210846 5.817597 1.717312 78.197946 -11.788705 45.473783 0.220912 59.707417 0.432152 0.000000 0.000000 -0.000000 -2.332923 8.720598 -14.177467 3.820124 9.099588 18.472912 0.000000 0.000000 0.000000 -6.541456 -10.051795 -12.869451 -3.101795 -6.066078 18.322901 
0.967248 0.072681 -0.099846 -0.461248 -3.556173 -2.467156 0.000000 0.000000 0.000000 -2.106852 1.492081 -0.485462 -2.418915 0.957582 3.247064 0.000000 0.000000 0.000000 -3.055495 0.794760 2.245918 0.967989 -0.130983 0.457311 -2.389590 0.921223 3.675136 -1.010374 4.772659 0.163104 -56.136801 -6.574360 73.248661 0.137774 -24.378938 -0.088320 -2.772174 0.974473 3.009190 9.462435 5.518515 1.629461 76.966144 -9.989438 48.688999 0.046018 62.909692 0.306074 -0.000000 0.000000 -0.000000 -2.303561 8.878161 -14.515170 3.938204 9.288049 18.524726 0.000000 0.000000 0.000000 -6.223138 -10.175074 -13.259961 -3.427827 -5.770614 18.499428 
1.313683 0.064985 -0.146310 -0.723238 -3.193252 -2.404443 0.000000 0.000000 0.000000 -2.612836 1.795361 0.031379 -2.793731 1.040645 3.701322 0.000000 0.000000 0.000000 -3.365113 0.871064 2.647750 0.701803 -0.359410 0.951282 -2.623016 0.967888 4.172689 -0.634779 4.709766 0.222679 -57.280926 -7.437918 73.400422 0.131308 -22.261914 -0.081898 -3.075041 1.109693 3.530729 9.265095 5.976766 1.771973 78.014386 -9.225590 52.745816 0.009191 64.109162 0.299555 -0.000000 0.000000 -0.000000 -2.350279 9.005836 -14.630595 4.001438 9.312946 18.642297 0.000000 0.000000 0.000000 -6.139464 -10.301454 -13.360628 -3.508537 -5.653496 18.558646 
1.669887 0.059348 -0.195780 -0.913754 -2.960881 -2.421485 0.000000 0.000000 0.000000 -2.790084 2.012427 0.130732 -3.142789 1.060410 4.084015 0.000000 0.000000 0.000000 -3.685706 0.830397 3.035675 0.596072 -0.505738 1.213344 -2.877124 0.925173 4.706126 -0.403653 4.492402 0.314096 -57.600163 -7.642833 73.822862 0.126293 -23.018170 -0.073057 -3.404101 1.119096 3.909035 9.112178 6.920107 2.045394 78.898220 -9.038027 54.878468 -0.038670 62.694160 0.318394 -0.000000 0.000000 -0.000000 -2.410732 9.143458 -14.609522 4.026550 9.346928 18.729451 0.000000 0.000000 0.000000 -6.179495 -10.394733 -13.272615 -3.434656 -5.418983 18.415707 
2.023459 0.055072 -0.246121 -1.085912 -2.885238 -2.432726 0.000000 0.000000 0.000000 -2.757529 2.084534 0.150174 -3.346650 1.050592 4.359476 0.000000 0.000000 0.000000 -3.889270 0.738835 3.315335 0.528977 -0.626286 1.332684 -3.051063 0.843056 5.059370 -0.086907 4.378216 0.380383 -57.363396 -7.262859 73.788623 0.119317 -25.023089 -0.035590 -3.597919 1.117360 4.119950 8.527465 7.406575 2.145082 79.520742 -9.459876 55.990317 -0.022222 60.660695 0.388752 -0.000000 0.000000 -0.000000 -2.454722 9.265602 -14.579326 4.027789 9.351111 18.800299 0.000000 0.000000 0.000000 -6.222444 -10.433849 -13.196426 -3.310762 -5.169930 18.265523 
2.351955 0.051816 -0.296249 -1.276222 -2.861136 -2.423971 0.000000 0.000000 0.000000 -2.591765 2.093511 0.283376 -3.439666 1.026424 4.472032 0.000000 0.000000 0.000000 -3.975672 0.717187 3.384386 0.452810 -0.707768 1.438039 -3.139849 0.770968 5.197491 0.176581 4.409815 0.404098 -56.973546 -6.830745 73.696833 0.113935 -26.875134 -0.018261 -3.684715 1.105020 4.183578 7.919167 7.607164 2.160010 79.972499 -9.892940 56.328401 0.010331 59.201159 0.445032 -0.000000 0.000000 -0.000000 -2.452796 9.348913 -14.601833 4.034717 9.331797 18.882901 0.000000 0.000000 0.000000 -6.215026 -10.442523 -13.171076 -3.182585 -4.943241 18.144714 
2.632563 0.049809 -0.344820 -1.492838 -2.845751 -2.403726 0.000000 0.000000 0.000000 -2.434940 2.071636 0.311498 -3.453581 0.993882 4.453255 0.000000 0.000000 0.000000 -3.995059 0.688343 3.354695 0.365710 -0.769641 1.507927 -3.163784 0.710301 5.195100 0.368858 4.578480 0.403713 -56.634315 -6.449009 73.797900 0.111589 -27.785816 -0.020294 -3.704289 1.073724 4.145601 7.455432 7.606879 2.128304 80.263420 -10.217266 56.340704 0.029790 58.570747 0.472006 -0.000000 0.000000 -0.000000 -2.404790 9.381263 -14.668345 4.050477 9.294974 18.979016 0.000000 0.000000 -0.000000 -6.153207 -10.432052 -13.173322 -3.075761 -4.768745 18.038586 
2.864378 0.048869 -0.390571 -1.705862 -2.837096 -2.382620 0.000000 0.000000 0.000000 -2.309895 2.050404 0.305869 -3.429552 0.960297 4.361615 0.000000 0.000000 0.000000 -3.975805 0.656299 3.268085 0.293531 -0.809358 1.562037 -3.146676 0.653404 5.121229 0.448559 4.772524 0.396611 -56.366278 -6.142040 74.092849 0.106048 -28.270811 -0.013213 -3.691649 1.039839 4.065915 7.140521 7.555137 2.101629 80.237095 -10.499856 56.142682 0.057984 59.443515 0.493866 -0.000000 0.000000 -0.000000 -2.315274 9.387131 -14.741850 4.066952 9.253526 19.066212 0.000000 0.000000 -0.000000 -6.058908 -10.420772 -13.182257 -2.986216 -4.631041 17.956965 
3.046441 0.048554 -0.432633 -1.901553 -2.828189 -2.372004 0.000000 0.000000 0.000000 -2.216320 2.034677 0.293226 -3.390068 0.929056 4.248970 0.000000 0.000000 0.000000 -3.938262 0.627647 3.173615 0.246226 -0.825837 1.611337 -3.106820 0.602970 5.034540 0.502466 4.924071 0.388130 -56.241375 -5.870557 74.419513 0.099870 -27.551977 -0.009091 -3.665659 1.009719 3.984766 6.925941 7.504704 2.081699 79.946105 -10.764181 55.952378 0.079803 61.491952 0.502828 0.000000 0.000000 -0.000000 -2.202796 9.379567 -14.795280 4.078916 9.211526 19.110914 0.000000 0.000000 -0.000000 -5.947803 -10.406597 -13.177243 -2.901980 -4.505624 17.880754 
3.177524 0.048234 -0.470461 -2.067645 -2.813091 -2.375922 0.000000 0.000000 0.000000 -2.141303 2.024494 0.309618 -3.341261 0.899306 4.140705 0.000000 0.000000 0.000000 -3.889411 0.600937 3.091881 0.210839 -0.830372 1.648029 -3.052020 0.554342 4.958202 0.538788 5.029670 0.382602 -56.209904 -5.630583 74.735143 0.093976 -26.429304 -0.002895 -3.625765 0.981453 3.916587 6.825985 7.461931 2.070351 79.439347 -11.022724 55.838968 0.107401 64.126992 0.517628 0.000000 0.000000 -0.000000 -2.085919 9.366151 -14.822921 4.088376 9.169291 19.124100 0.000000 0.000000 -0.000000 -5.834379 -10.390017 -13.151218 -2.806545 -4.363677 17.801192 
3.256161 0.047218 -0.503686 -2.196670 -2.789210 -2.390860 0.000000 0.000000 0.000000 -2.075057 2.015384 0.360175 -3.284179 0.870180 4.051977 0.000000 0.000000 0.000000 -3.830307 0.575516 3.031520 0.184237 -0.831079 1.683004 -2.987601 0.519894 4.898418 0.559081 5.087751 0.379045 -56.238023 -5.392378 75.011588 0.089803 -25.556138 0.006709 -3.574365 0.955000 3.868367 6.818458 7.436516 2.070419 78.862331 -11.210141 55.742528 0.137107 66.520898 0.538524 0.000000 0.000000 -0.000000 -1.970563 9.356807 -14.820279 4.095573 9.132481 19.105409 0.000000 0.000000 -0.000000 -5.727833 -10.376377 -13.109798 -2.690638 -4.186307 17.726412 
3.285563 0.045305 -0.533760 -2.295020 -2.749359 -2.411402 0.000000 0.000000 0.000000 -2.006881 2.002793 0.431253 -3.218293 0.841036 3.983616 0.000000 0.000000 0.000000 -3.762288 0.552035 2.995751 0.159336 -0.829717 1.715599 -2.914504 0.499458 4.855435 0.587529 5.136730 0.376485 -56.317509 -5.147310 75.202088 0.087948 -24.714655 0.013663 -3.512841 0.930709 3.835743 6.894580 7.418424 2.075956 78.335366 -11.310618 55.684022 0.163317 67.998833 0.557678 0.000000 0.000000 -0.000000 -1.862137 9.349503 -14.800364 4.101367 9.100776 19.064137 0.000000 0.000000 -0.000000 -5.627638 -10.369505 -13.062118 -2.547673 -3.965371 17.657411 
3.268810 0.042484 -0.561981 -2.368738 -2.696717 -2.429405 0.000000 0.000000 0.000000 -1.939384 1.984949 0.515649 -3.141542 0.810252 3.928919 0.000000 0.000000 0.000000 -3.683078 0.530604 2.979511 0.136113 -0.829128 1.749713 -2.831479 0.477952 4.827982 0.633250 5.175448 0.376760 -56.425474 -4.890834 75.339935 0.088184 -23.982032 0.020570 -3.438801 0.906095 3.814992 7.001677 7.409665 2.080965 77.906884 -11.408131 55.663088 0.179690 68.468901 0.571662 0.000000 0.000000 -0.000000 -1.756123 9.353014 -14.777428 4.105547 9.067623 19.018793 0.000000 0.000000 -0.000000 -5.526831 -10.365697 -13.019640 -2.379083 -3.702002 17.604238 
3.208935 0.038669 -0.589761 -2.422773 -2.627969 -2.440489 0.000000 -0.000000 0.000000 -1.870384 1.961853 0.617857 -3.053492 0.776341 3.885509 0.000000 0.000000 0.000000 -3.592556 0.510212 2.980383 0.110329 -0.828186 1.788994 -2.736524 0.455018 4.811730 0.698787 5.220575 0.375966 -56.592910 -4.660838 75.409457 0.090581 -23.380202 0.026031 -3.352491 0.879158 3.802412 7.124247 7.409087 2.085005 77.586316 -11.535328 55.707270 0.185325 68.131398 0.575513 0.000000 0.000000 -0.000000 -1.647626 9.366163 -14.752962 4.111094 9.034475 18.960773 0.000000 0.000000 -0.000000 -5.420705 -10.364734 -12.978316 -2.185907 -3.402928 17.557310 
3.108969 0.033809 -0.618413 -2.463362 -2.544447 -2.442889 0.000000 -0.000000 0.000000 -1.779395 1.939446 0.705579 -2.953281 0.738507 3.850086 0.000000 0.000000 0.000000 -3.487283 0.486512 2.990361 0.078578 -0.829129 1.838906 -2.626279 0.427785 4.803950 0.787063 5.280284 0.373202 -56.799937 -4.452145 75.418755 0.092792 -22.879125 0.031835 -3.248665 0.847547 3.792942 7.236361 7.391946 2.080054 77.356746 -11.663965 55.783089 0.186709 67.380974 0.578339 0.000000 0.000000 -0.000000 -1.531451 9.389228 -14.740553 4.119283 9.001842 18.909336 0.000000 0.000000 0.000000 -5.302970 -10.368744 -12.943487 -1.977884 -3.090944 17.524555 
